<svg width="10" height="10" viewBox="0 0 10 10" fill="none" xmlns="http://www.w3.org/2000/svg">
<path d="M9.57284 6.64925C9.07584 6.37329 8.65261 6.09652 8.3438 5.8946C8.10795 5.7406 7.93753 5.62941 7.81261 5.56667C7.46342 5.39248 7.19876 5.51552 7.09807 5.61729C7.08542 5.62994 7.07411 5.64367 7.06442 5.65821C6.70176 6.20233 6.22819 6.72275 6.08953 6.75075C5.92934 6.72571 5.17953 6.29952 4.4343 5.67894C3.67345 5.04491 3.19476 4.43779 3.12449 4.02425C3.61261 3.52187 3.78842 3.20579 3.78842 2.8461C3.78842 2.47537 2.92365 0.927559 2.76722 0.771136C2.61026 0.614443 2.25676 0.589943 1.71642 0.697636C1.66445 0.708136 1.61653 0.733713 1.57884 0.771136C1.51342 0.836559 -0.0174311 2.39729 0.71003 4.2889C1.50857 6.36494 3.55822 8.77806 6.17138 9.17006C6.46834 9.21448 6.74672 9.23656 7.00734 9.23656C8.54465 9.23656 9.45195 8.46306 9.70745 6.92871C9.72657 6.81644 9.67245 6.70444 9.57284 6.64925ZM6.25134 8.63752C3.48795 8.22318 1.74738 5.48537 1.21268 4.0956C0.6823 2.71714 1.66042 1.4881 1.90595 1.21025C2.10572 1.17633 2.31599 1.16206 2.40376 1.17579C2.58711 1.43075 3.22195 2.63017 3.24995 2.8461C3.24995 2.98744 3.20392 3.18425 2.65576 3.73267C2.60515 3.78302 2.57688 3.8514 2.57688 3.92302C2.57688 5.33271 5.55026 7.28841 6.07688 7.28841C6.53484 7.28841 7.13199 6.51867 7.47203 6.0171C7.49168 6.01791 7.5248 6.02464 7.57192 6.04833C7.66884 6.09706 7.83684 6.20664 8.04926 6.34556C8.3298 6.5289 8.70242 6.77229 9.14234 7.02456C8.94257 7.98571 8.38418 8.95791 6.25134 8.63752Z" fill="white"/>
</svg>
